<svg width="16" height="16" viewBox="0 0 16 16" fill="none" xmlns="http://www.w3.org/2000/svg">
<path d="M8.00004 12.6667C6.90662 12.6803 5.82451 12.4443 4.83604 11.9767C4.06984 11.6028 3.38181 11.0865 2.80871 10.4553C2.20166 9.80273 1.72369 9.04109 1.40004 8.21065L1.33337 7.99999L1.40337 7.78932C1.72725 6.95961 2.2042 6.19817 2.80937 5.54465C3.38227 4.91353 4.07007 4.39723 4.83604 4.02332C5.82452 3.55571 6.90663 3.31973 8.00004 3.33332C9.09345 3.31975 10.1756 3.55573 11.164 4.02332C11.9303 4.39714 12.6183 4.91345 13.1914 5.54465C13.7996 6.19636 14.2777 6.95823 14.6 7.78932L14.6667 7.99999L14.5967 8.21065C13.5508 10.9332 10.9162 12.7129 8.00004 12.6667ZM8.00004 4.66665C5.73062 4.59554 3.64765 5.91672 2.74471 7.99999C3.64751 10.0834 5.73057 11.4046 8.00004 11.3333C10.2694 11.4042 12.3523 10.0831 13.2554 7.99999C12.3536 5.91571 10.2699 4.59404 8.00004 4.66665ZM8.00004 9.99999C7.03826 10.0064 6.20628 9.33156 6.01402 8.38917C5.82175 7.44678 6.32289 6.5 7.2103 6.12909C8.09771 5.75819 9.12353 6.06674 9.65907 6.86566C10.1946 7.66457 10.0903 8.7307 9.41004 9.41065C9.03759 9.78749 8.52988 9.9997 8.00004 9.99999Z" fill="white"/>
</svg>
