<svg width="20" height="20" viewBox="0 0 20 20" fill="none" xmlns="http://www.w3.org/2000/svg">
<path d="M6.25 6.25C6.25 4.17875 7.92875 2.5 10 2.5C12.0712 2.5 13.75 4.17875 13.75 6.25C13.75 6.69125 13.66 7.1075 13.52 7.5H16.25V6.25C16.25 2.79875 13.4513 0 10 0C6.5475 0 3.75 2.7975 3.75 6.25V7.5C3.75 7.5 4.88625 7.5 6.48 7.5C6.34 7.10625 6.25 6.69 6.25 6.25ZM16.25 7.5H3.75C2.36875 7.5 1.25 8.62 1.25 10V17.5C1.25 18.8813 2.36875 20 3.75 20H16.25C17.6313 20 18.75 18.88 18.75 17.5V10C18.75 8.62 17.6313 7.5 16.25 7.5ZM11.25 14.6525V16.25C11.25 16.94 10.69 17.5 10 17.5C9.31 17.5 8.75 16.94 8.75 16.25V14.6537C8.00625 14.22 7.5 13.4225 7.5 12.5C7.5 11.1187 8.61875 10 10 10C11.3813 10 12.5 11.1187 12.5 12.5C12.5 13.4225 11.9937 14.22 11.25 14.6525Z" fill="#B1B1B1"/>
</svg>
