<svg width="22" height="20" viewBox="0 0 22 20" fill="none" xmlns="http://www.w3.org/2000/svg">
<path d="M18.3333 3.33333C18.3333 1.5 16.6833 0 14.6666 0H7.33329C5.31663 0 3.66663 1.5 3.66663 3.33333V16.6667C3.66663 18.5 5.31663 20 7.33329 20H14.6666C16.6833 20 18.3333 18.5 18.3333 16.6667V3.33333ZM11.9166 18.3333H10.0833C9.53329 18.3333 9.16663 18 9.16663 17.5C9.16663 17 9.53329 16.6667 10.0833 16.6667H11.9166C12.4666 16.6667 12.8333 17 12.8333 17.5C12.8333 18 12.4666 18.3333 11.9166 18.3333ZM16.5 14.1667C16.5 14.6667 16.1333 15 15.5833 15H6.41663C5.86663 15 5.49996 14.6667 5.49996 14.1667V4.16667C5.49996 3.66667 5.86663 3.33333 6.41663 3.33333H15.5833C16.1333 3.33333 16.5 3.66667 16.5 4.16667V14.1667Z" fill="#B1B1B1"/>
</svg>
