<svg width="20" height="19" viewBox="0 0 20 19" fill="none" xmlns="http://www.w3.org/2000/svg">
<path d="M8.5166 2.1416C9.19607 1.04778 10.8039 1.04779 11.4834 2.1416L11.5479 2.25488L13.2627 5.50684L16.8877 6.13477C18.2742 6.37467 18.8254 8.07006 17.8447 9.0791L15.2803 11.7158L15.8047 15.3564C16.0047 16.7489 14.5633 17.7962 13.3008 17.1758H13.2998L10 15.5527L6.7002 17.1758C5.43756 17.7966 3.99524 16.7491 4.19531 15.3564L4.71875 11.7158L2.15527 9.0791C1.17458 8.07005 1.72581 6.37466 3.1123 6.13477L6.73633 5.50684L8.45215 2.25488L8.5166 2.1416Z" stroke="url(#paint0_linear_830_472)" stroke-width="2.5"/>
<defs>
<linearGradient id="paint0_linear_830_472" x1="10" y1="2" x2="10" y2="18" gradientUnits="userSpaceOnUse">
<stop stop-color="#FFBE00"/>
<stop offset="1" stop-color="#FF960C"/>
</linearGradient>
</defs>
</svg>
