<svg width="18" height="18" viewBox="0 0 18 18" fill="none" xmlns="http://www.w3.org/2000/svg">
<path fill-rule="evenodd" clip-rule="evenodd" d="M9 7.71429C10.4202 7.71429 11.5714 6.56302 11.5714 5.14286C11.5714 3.7227 10.4202 2.57143 9 2.57143C7.57984 2.57143 6.42857 3.7227 6.42857 5.14286C6.42857 6.56302 7.57984 7.71429 9 7.71429ZM9 10.2857C11.8403 10.2857 14.1429 7.98318 14.1429 5.14286C14.1429 2.30254 11.8403 0 9 0C6.15968 0 3.85714 2.30254 3.85714 5.14286C3.85714 7.98318 6.15968 10.2857 9 10.2857Z" fill="url(#paint0_linear_830_663)"/>
<path fill-rule="evenodd" clip-rule="evenodd" d="M9 11.5714C5.4496 11.5714 2.57143 14.4496 2.57143 18H0C0 13.0294 4.02944 9 9 9C13.9706 9 18 13.0294 18 18H15.4286C15.4286 14.4496 12.5504 11.5714 9 11.5714Z" fill="url(#paint1_linear_830_663)"/>
<defs>
<linearGradient id="paint0_linear_830_663" x1="9" y1="0" x2="9" y2="18" gradientUnits="userSpaceOnUse">
<stop stop-color="#FFC315"/>
<stop offset="1" stop-color="#FF960C"/>
</linearGradient>
<linearGradient id="paint1_linear_830_663" x1="9" y1="0" x2="9" y2="18" gradientUnits="userSpaceOnUse">
<stop stop-color="#FFC315"/>
<stop offset="1" stop-color="#FF960C"/>
</linearGradient>
</defs>
</svg>
