<svg width="32" height="32" viewBox="0 0 32 32" fill="none" xmlns="http://www.w3.org/2000/svg">
<g clip-path="url(#clip0_830_1829)">
<path d="M19.6976 9.99405L19.3375 8.3869C19.275 8.1131 18.9625 7.98512 18.7274 8.1369L16.5937 9.51786C16.2544 9.7381 15.817 9.74107 15.4718 9.52976L13.2012 8.125C12.9661 7.97917 12.6566 8.11012 12.597 8.38095L11.6269 12.7649L8.59444 14.9286C8.62717 14.9256 8.77299 14.8988 9.00809 14.8661C10.133 14.6935 13.3261 14.244 16.0015 14.244C18.6768 14.244 21.5516 14.6488 22.8163 14.8363C23.1972 14.8929 23.4204 14.9315 23.4204 14.9315L20.2243 12.3214L19.7005 9.99702L19.6976 9.99405ZM27.3903 4.76488C26.9648 4.33333 26.5184 3.9256 26.0452 3.54762C23.7061 1.65774 20.8225 0.41369 17.665 0.0863095C17.5966 0.0773809 17.5252 0.0714286 17.4567 0.0684524H17.4537C16.9746 0.0208333 16.4895 0 15.9985 0C15.4539 0 14.9153 0.0267857 14.3856 0.0803571C14.2993 0.0892857 14.2159 0.0982143 14.1296 0.110119C11.0525 0.467262 8.2403 1.6994 5.95183 3.5506C5.48163 3.92857 5.03227 4.33333 4.60969 4.76488C1.75876 7.65476 0 11.622 0 16C0 20.378 1.69925 24.2083 4.46089 27.0833C4.8805 27.5208 5.32689 27.9345 5.7941 28.3244C8.11234 30.244 10.9811 31.5268 14.1296 31.8899C14.2159 31.9018 14.2993 31.9107 14.3856 31.9196C14.9153 31.9732 15.4539 32 15.9985 32C16.4895 32 16.9746 31.9792 17.4537 31.9315H17.4567C17.5252 31.9286 17.5966 31.9226 17.665 31.9137C20.8939 31.5804 23.8371 30.2857 26.2029 28.3244C26.6731 27.9375 27.1165 27.5208 27.5361 27.0833C30.3008 24.2083 32 20.3006 32 16C32 11.6994 30.2412 7.65476 27.3903 4.76488ZM24.8876 4.92262C24.2358 5.59524 23.5067 6.19345 22.7151 6.70536C21.9444 5.125 20.9802 3.65476 19.8553 2.3244C21.7152 2.84821 23.4204 3.74107 24.8876 4.92262ZM11.9066 2.39583C10.8293 3.68155 9.90086 5.09821 9.15093 6.61905C8.40993 6.125 7.72547 5.55655 7.10946 4.92262C8.51409 3.79167 10.1389 2.9256 11.9066 2.39583ZM6.92198 26.9256C7.54989 26.247 8.25518 25.6399 9.02297 25.1161C9.79373 26.7381 10.7669 28.244 11.9066 29.6042C10.0586 29.0506 8.36827 28.131 6.92198 26.9256ZM19.8553 29.6756C21.0427 28.2708 22.0515 26.7113 22.8431 25.0298C23.6615 25.5714 24.4144 26.2083 25.075 26.9256C23.5663 28.1815 21.7956 29.131 19.8553 29.6756ZM26.3874 25.6845C25.5512 24.7857 24.5989 23.994 23.5514 23.3393C23.8371 22.5625 24.0811 21.7649 24.2745 20.9464C23.8519 21.6548 23.3401 22.3006 22.7568 22.872C22.2866 23.3363 21.7658 23.753 21.2064 24.1131C21.1379 24.1577 21.0665 24.2024 20.9921 24.247C19.9178 26.506 18.412 28.5238 16.5848 30.1935C16.3913 30.2024 16.1949 30.2054 15.9985 30.2054C15.7426 30.2054 15.4867 30.1994 15.2307 30.1845H15.2277C13.3708 28.4851 11.8471 26.4286 10.7698 24.122C10.7639 24.1131 10.7579 24.1012 10.755 24.0893C10.2104 23.7351 9.70148 23.3244 9.24021 22.872C8.51409 22.1577 7.90105 21.3333 7.43086 20.4196C7.6481 21.4524 7.93974 22.4554 8.30577 23.4256C7.3148 24.0655 6.41012 24.8244 5.6096 25.6845C3.4342 23.3512 2.03552 20.2827 1.82721 16.8929H6.40119C6.37441 16.5982 6.35953 16.3006 6.35953 16C6.35953 15.6369 6.38036 15.2798 6.41905 14.9286H1.83911C2.09207 11.5238 3.54431 8.45536 5.77625 6.13988C6.56487 6.95833 7.44871 7.67857 8.41291 8.28571C7.99926 9.34524 7.66893 10.4464 7.43086 11.5804C7.95462 10.5685 8.65098 9.66071 9.48126 8.90179C9.87706 8.53571 10.3026 8.20536 10.755 7.91071C10.8055 7.80357 10.8561 7.69643 10.9097 7.58929C11.9751 5.39881 13.4482 3.44345 15.2277 1.81548H15.2307C15.4867 1.8006 15.7426 1.79464 15.9985 1.79464C16.1949 1.79464 16.3913 1.79762 16.5848 1.80655C18.3852 3.45238 19.8731 5.43452 20.9445 7.65179C20.9623 7.68452 20.9772 7.72024 20.9921 7.75298C21.5397 8.08333 22.0515 8.47024 22.5187 8.89881C23.2002 9.52679 23.7954 10.25 24.2745 11.0536C24.0573 10.1339 23.7775 9.24107 23.4442 8.375C24.462 7.75 25.3935 6.99702 26.2208 6.13988C28.4557 8.45536 29.9079 11.5238 30.1609 14.9286H25.581C25.6196 15.2798 25.6405 15.6369 25.6405 16C25.6405 16.3006 25.6256 16.5982 25.5988 16.8929H30.1728C29.9645 20.2827 28.5658 23.3512 26.3874 25.6845ZM21.5188 18.6012L17.2365 19.3869C17.0758 19.4167 16.9419 19.5268 16.8824 19.6756L16.1771 21.4345C16.1116 21.5982 15.8795 21.6012 15.8081 21.4375L15.0462 19.6369C14.9837 19.4911 14.8528 19.3839 14.6951 19.3542L10.4841 18.5833C10.2729 18.5446 10.133 18.7976 10.2788 18.9583L12.6357 21.506C12.7786 21.6607 12.7458 21.9048 12.5673 22.0179L11.5465 22.6518C11.3561 22.7708 11.4394 23.0655 11.6656 23.0655H20.2779C20.504 23.0655 20.5874 22.7679 20.3939 22.6488L19.2482 21.9554C19.0607 21.8423 19.031 21.5804 19.1887 21.4286L21.7152 18.9792C21.8759 18.8244 21.7361 18.5565 21.5188 18.5982V18.6012ZM15.3736 16.8929C15.4123 16.8036 15.445 16.7173 15.4688 16.6369H16.4508C16.4747 16.7173 16.5074 16.8036 16.5461 16.8929C16.8675 17.6488 17.5936 18.5327 18.4804 18.5327C19.7958 18.5327 20.5755 17.4702 20.5755 16.8929C20.5755 16.3155 20.0785 15.003 18.4685 15.003C17.546 15.003 16.9984 15.3274 16.6979 15.6071H15.2218C14.9212 15.3274 14.3737 15.003 13.4511 15.003C11.8412 15.003 11.3442 16.3155 11.3442 16.8929C11.3442 17.4702 12.1239 18.5327 13.4392 18.5327C14.326 18.5327 15.0522 17.6488 15.3736 16.8929Z" fill="url(#paint0_linear_830_1829)"/>
</g>
<defs>
<linearGradient id="paint0_linear_830_1829" x1="16" y1="0" x2="16" y2="32" gradientUnits="userSpaceOnUse">
<stop stop-color="#FFC315"/>
<stop offset="1" stop-color="#FF960C"/>
</linearGradient>
<clipPath id="clip0_830_1829">
<rect width="32" height="32" fill="white"/>
</clipPath>
</defs>
</svg>
