<svg width="16" height="16" viewBox="0 0 16 16" fill="none" xmlns="http://www.w3.org/2000/svg">
<path d="M6.17442 1.41056C6.53684 0.251155 7.16639 -0.244055 8.4083 0.11503L8.43954 0.125201C8.80274 0.237073 9.22062 0.449864 9.61272 0.806603C10.2298 1.36988 10.5969 2.15063 10.5969 3.13166C10.5969 4.00787 10.5461 4.54923 10.3977 5.16336L10.393 5.18057H13.6056C15.5692 5.18057 16.3495 6.50739 15.8559 8.71353L15.8137 8.89425L15.7137 9.22439L15.3365 10.455L15.1599 11.0175L14.992 11.5432L14.6796 12.4898L14.4663 13.1063L14.3343 13.474L14.1516 13.9574L14.0399 14.2367C13.4994 15.5432 12.384 16.1432 10.9257 15.9711L3.839 15.4431C3.79397 15.4407 3.74892 15.4386 3.70387 15.4368L3.42268 15.4306H2.6252L2.39635 15.4266L2.21357 15.4188L2.06126 15.4047L1.99331 15.3946L1.86287 15.3687L1.65198 15.3132C0.5655 14.9901 0 14.0677 0 12.7534V7.55491C0 5.89483 1.00603 4.94743 2.71971 4.94743L4.10691 4.94665L4.2022 4.8739C4.74446 4.42589 5.19373 3.8757 5.52456 3.25449L5.63625 3.03544C5.74795 2.80544 5.83934 2.56448 5.92603 2.28363L5.94009 2.23591L6.17442 1.41056ZM7.7975 1.55842C7.76391 1.55059 7.74907 1.56154 7.73267 1.60927L7.66159 1.88308L7.46632 2.58795L7.41946 2.74442C7.31939 3.07863 7.19351 3.40453 7.04298 3.71919C6.70468 4.41349 6.25566 5.04793 5.71358 5.59754C5.43857 5.88314 5.13643 6.14123 4.81144 6.36813L4.9122 6.29616V13.9496L11.0757 14.4143C11.8427 14.5043 12.277 14.3024 12.5441 13.7525L12.5964 13.6383L12.7019 13.3746L12.8761 12.913L13.0026 12.5594L13.208 11.9641L13.3556 11.5229L13.6735 10.5371L14.025 9.41215L14.3078 8.47962C14.6554 7.08474 14.4507 6.74521 13.6056 6.74521H9.62053C9.46404 6.7453 9.30979 6.70793 9.17065 6.6362C9.03151 6.56447 8.9115 6.46047 8.82063 6.33286C8.72975 6.20526 8.67065 6.05774 8.64825 5.90262C8.62584 5.74749 8.64079 5.58925 8.69183 5.44108L8.73166 5.32373L8.79259 5.12346C8.98083 4.46787 9.03472 4.03916 9.03472 3.13166C9.03472 2.24373 8.54264 1.79389 7.99042 1.62335L7.92247 1.60223L7.7975 1.55842ZM3.35004 6.5113H2.72049C1.84881 6.5113 1.56294 6.7812 1.56294 7.55491V12.7534C1.56294 13.4505 1.74493 13.7313 2.18155 13.8354L2.20889 13.8417L2.27762 13.8518L2.37135 13.8596L2.58302 13.8643H3.10635L3.35004 13.8659V6.51208V6.5113Z" fill="white"/>
</svg>
