<svg width="16" height="16" viewBox="0 0 16 16" fill="none" xmlns="http://www.w3.org/2000/svg">
<path d="M6.17442 1.41056C6.53684 0.251155 7.16639 -0.244055 8.4083 0.11503L8.43954 0.125201C8.80274 0.237073 9.22062 0.449864 9.61272 0.806603C10.2298 1.36988 10.5969 2.15063 10.5969 3.13166C10.5969 4.00787 10.5461 4.54923 10.3977 5.16336L10.393 5.18057H13.6056C15.5692 5.18057 16.3495 6.50739 15.8559 8.71353L15.8137 8.89425L15.7137 9.22439L15.3365 10.455L15.1599 11.0175L14.992 11.5432L14.6796 12.4898L14.4663 13.1063L14.3343 13.474L14.1516 13.9574L14.0399 14.2367C13.4994 15.5432 12.384 16.1432 10.9257 15.9711L3.839 15.4431C3.79397 15.4407 3.74892 15.4386 3.70387 15.4368L3.42268 15.4306H2.6252L2.39635 15.4266L2.21357 15.4188L2.06126 15.4047L1.99331 15.3946L1.86287 15.3687L1.65198 15.3132C0.5655 14.9901 0 14.0677 0 12.7534V7.55491C0 5.89483 1.00603 4.94743 2.71971 4.94743L4.10691 4.94665L4.2022 4.8739C4.74446 4.42589 5.19373 3.8757 5.52456 3.25449L5.63626 3.03544C5.74795 2.80544 5.83934 2.56448 5.92604 2.28363L5.94009 2.23591L6.17442 1.41056Z" fill="#FF960C"/>
</svg>
