<svg width="18" height="18" viewBox="0 0 18 18" fill="none" xmlns="http://www.w3.org/2000/svg">
<path d="M11.811 6.57471H13.2173C13.5902 6.57471 13.9479 6.71907 14.2117 6.97603C14.4754 7.23299 14.6235 7.5815 14.6235 7.9449V14.5218C14.6235 14.8852 14.4754 15.2337 14.2117 15.4907C13.9479 15.7477 13.5902 15.892 13.2173 15.892H4.77979C4.40682 15.892 4.04914 15.7477 3.78542 15.4907C3.52169 15.2337 3.37354 14.8852 3.37354 14.5218V7.9449C3.37354 7.5815 3.52169 7.23299 3.78542 6.97603C4.04914 6.71907 4.40682 6.57471 4.77979 6.57471H6.18604" stroke="white" stroke-width="1.49989" stroke-linecap="round" stroke-linejoin="round"/>
<path d="M11.8125 4.38247L9 1.64209L6.1875 4.38247" stroke="white" stroke-width="1.49989" stroke-linecap="round" stroke-linejoin="round"/>
<path d="M8.99976 10.9937V1.64209" stroke="white" stroke-width="1.49989" stroke-linecap="round" stroke-linejoin="round"/>
</svg>
