<svg width="16" height="16" viewBox="0 0 16 16" fill="none" xmlns="http://www.w3.org/2000/svg">
<path d="M7.50028 0.105349L0.5057 3.30318C-0.16578 3.61009 -0.16578 4.39532 0.5057 4.70223C1.38002 5.10196 6.62596 7.50034 7.50028 7.90007C7.80704 8.04053 8.19174 8.04053 8.49951 7.90007L15.4941 4.70223C16.1656 4.39532 16.1656 3.61009 15.4941 3.30318L8.49951 0.105349C8.19274 -0.0351162 7.80804 -0.0351162 7.50028 0.105349ZM7.99989 1.72921L12.965 4.00271L7.99989 6.27621C6.96869 5.80469 4.71644 4.77163 3.03475 4.00271L7.99989 1.72921ZM0.755507 7.22549C0.508698 7.27937 0.267884 7.40856 0.130991 7.60027C-0.142797 7.98361 0.027071 8.48047 0.5057 8.69953L7.50028 11.8974C7.80704 12.0378 8.19174 12.0378 8.49951 11.8974L15.4941 8.69953C15.9737 8.48047 16.1426 7.98361 15.8688 7.60027C15.595 7.21693 14.9745 7.08142 14.4949 7.30047L7.99989 10.2735L1.50493 7.30047C1.26511 7.19095 1.00232 7.17168 0.755507 7.22549ZM0.755507 11.2228C0.508698 11.2767 0.267884 11.4059 0.130991 11.5976C-0.142797 11.9809 0.027071 12.4778 0.5057 12.6968L7.50028 15.8947C7.80704 16.0351 8.19174 16.0351 8.49951 15.8947L15.4941 12.6968C15.9737 12.4778 16.1426 11.9809 15.8688 11.5976C15.595 11.2142 14.9745 11.0787 14.4949 11.2978L7.99989 14.2708L1.50493 11.2978C1.26511 11.1882 1.00232 11.169 0.755507 11.2228Z" fill="white"/>
</svg>
