<svg width="18" height="18" viewBox="0 0 18 18" fill="none" xmlns="http://www.w3.org/2000/svg">
<g clip-path="url(#clip0_443_1610)">
<path d="M8.04896 2.92664C8.34833 2.00537 9.65167 2.00538 9.95105 2.92664L11.0208 6.21864C11.1547 6.63063 11.5386 6.90957 11.9718 6.90958L15.4333 6.90971C16.402 6.90975 16.8047 8.1493 16.0211 8.71871L13.2208 10.7534C12.8703 11.008 12.7237 11.4594 12.8575 11.8714L13.927 15.1635C14.2263 16.0847 13.1719 16.8508 12.3882 16.2815L9.58775 14.247C9.23728 13.9924 8.76272 13.9924 8.41225 14.247L5.61179 16.2815C4.82809 16.8508 3.77367 16.0847 4.07297 15.1635L5.14249 11.8714C5.27634 11.4594 5.1297 11.008 4.77924 10.7534L1.97894 8.71871C1.19528 8.1493 1.59804 6.90975 2.56672 6.90971L6.02818 6.90958C6.46137 6.90957 6.8453 6.63063 6.97918 6.21864L8.04896 2.92664Z" fill="#FF960C" stroke="#FF960C" stroke-width="1.6"/>
</g>
<defs>
<clipPath id="clip0_443_1610">
<rect width="18" height="18" fill="white"/>
</clipPath>
</defs>
</svg>
