<svg width="160" height="160" viewBox="0 0 160 160" fill="none" xmlns="http://www.w3.org/2000/svg">
<path d="M154.22 132.315L84.22 22.3149C83.7677 21.6057 83.144 21.0219 82.4064 20.6174C81.6688 20.213 80.8412 20.001 80 20.001C79.1588 20.001 78.3312 20.213 77.5936 20.6174C76.856 21.0219 76.2323 21.6057 75.78 22.3149L5.78001 132.315C5.29875 133.071 5.02953 133.942 5.00054 134.838C4.97155 135.734 5.18385 136.621 5.61522 137.407C6.04659 138.192 6.68118 138.847 7.45257 139.304C8.22396 139.76 9.1038 140 10 140H150C150.896 140 151.776 139.76 152.547 139.304C153.319 138.847 153.953 138.192 154.385 137.407C154.816 136.621 155.028 135.734 154.999 134.838C154.971 133.942 154.701 133.071 154.22 132.315ZM19.11 130L80 34.3149L140.89 130H19.11Z" fill="#FF0000"/>
<path d="M77.47 51.39L35.47 117.39C35.1816 117.843 35.0203 118.366 35.003 118.903C34.9856 119.44 35.1129 119.972 35.3714 120.443C35.63 120.914 36.0103 121.307 36.4727 121.581C36.9351 121.855 37.4626 122 38 122H122C122.537 122 123.065 121.855 123.527 121.581C123.99 121.307 124.37 120.914 124.629 120.443C124.887 119.972 125.014 119.44 124.997 118.903C124.98 118.366 124.818 117.843 124.53 117.39L82.53 51.39C82.259 50.9647 81.8851 50.6145 81.4428 50.3719C81.0006 50.1294 80.5044 50.0022 80 50.0022C79.4956 50.0022 78.9994 50.1294 78.5572 50.3719C78.115 50.6145 77.7411 50.9647 77.47 51.39ZM85 115H75V105H85V115ZM85 70V100H75V70H85Z" fill="#FF0000"/>
</svg>
