<svg width="18" height="18" viewBox="0 0 18 18" fill="none" xmlns="http://www.w3.org/2000/svg">
<path fill-rule="evenodd" clip-rule="evenodd" d="M0 3C0 1.34315 1.00736 0 2.25 0H15.75C16.9926 0 18 1.34315 18 3V15C18 16.6569 16.9926 18 15.75 18H2.25C1.00736 18 0 16.6569 0 15V3ZM15.75 3L2.25 3V15H15.75V3Z" fill="url(#paint0_linear_830_1677)"/>
<path fill-rule="evenodd" clip-rule="evenodd" d="M15 5C15 5.55228 14.5523 6 14 6L10 6C9.44772 6 9 5.55228 9 5C9 4.44772 9.44772 4 10 4L14 4C14.5523 4 15 4.44771 15 5Z" fill="url(#paint1_linear_830_1677)"/>
<path fill-rule="evenodd" clip-rule="evenodd" d="M15 10C15 10.5523 14.5523 11 14 11H10C9.44772 11 9 10.5523 9 10C9 9.44772 9.44772 9 10 9H14C14.5523 9 15 9.44772 15 10Z" fill="url(#paint2_linear_830_1677)"/>
<path fill-rule="evenodd" clip-rule="evenodd" d="M15 13C15 13.5523 14.5523 14 14 14H10C9.44772 14 9 13.5523 9 13C9 12.4477 9.44772 12 10 12H14C14.5523 12 15 12.4477 15 13Z" fill="url(#paint3_linear_830_1677)"/>
<path fill-rule="evenodd" clip-rule="evenodd" d="M8 7C8 7.55228 7.55228 8 7 8H4C3.44772 8 3 7.55229 3 7L3 5C3 4.44772 3.44772 4 4 4L7 4C7.55228 4 8 4.44771 8 5L8 7Z" fill="url(#paint4_linear_830_1677)"/>
<path fill-rule="evenodd" clip-rule="evenodd" d="M8 13C8 13.5523 7.55228 14 7 14H4C3.44772 14 3 13.5523 3 13L3 10C3 9.44772 3.44772 9 4 9H7C7.55228 9 8 9.44772 8 10L8 13Z" fill="url(#paint5_linear_830_1677)"/>
<defs>
<linearGradient id="paint0_linear_830_1677" x1="9" y1="0" x2="9" y2="18" gradientUnits="userSpaceOnUse">
<stop stop-color="#FFC315"/>
<stop offset="1" stop-color="#FF960C"/>
</linearGradient>
<linearGradient id="paint1_linear_830_1677" x1="9" y1="0" x2="9" y2="18" gradientUnits="userSpaceOnUse">
<stop stop-color="#FFC315"/>
<stop offset="1" stop-color="#FF960C"/>
</linearGradient>
<linearGradient id="paint2_linear_830_1677" x1="9" y1="0" x2="9" y2="18" gradientUnits="userSpaceOnUse">
<stop stop-color="#FFC315"/>
<stop offset="1" stop-color="#FF960C"/>
</linearGradient>
<linearGradient id="paint3_linear_830_1677" x1="9" y1="0" x2="9" y2="18" gradientUnits="userSpaceOnUse">
<stop stop-color="#FFC315"/>
<stop offset="1" stop-color="#FF960C"/>
</linearGradient>
<linearGradient id="paint4_linear_830_1677" x1="9" y1="0" x2="9" y2="18" gradientUnits="userSpaceOnUse">
<stop stop-color="#FFC315"/>
<stop offset="1" stop-color="#FF960C"/>
</linearGradient>
<linearGradient id="paint5_linear_830_1677" x1="9" y1="0" x2="9" y2="18" gradientUnits="userSpaceOnUse">
<stop stop-color="#FFC315"/>
<stop offset="1" stop-color="#FF960C"/>
</linearGradient>
</defs>
</svg>
