<svg width="18" height="18" viewBox="0 0 18 18" fill="none" xmlns="http://www.w3.org/2000/svg">
<path fill-rule="evenodd" clip-rule="evenodd" d="M7.44586 0.5325C8.36471 -0.1775 9.63529 -0.177501 10.5541 0.5325L16.4741 5.10686C17.4354 5.84966 18 7.00785 18 8.23687V15.3808C18 16.8274 16.8487 18 15.4286 18H12.8571C11.437 18 10.2857 16.8274 10.2857 15.3808V10.7973H7.71429V15.3808C7.71429 16.8274 6.56302 18 5.14286 18H2.57143C1.15127 18 0 16.8274 0 15.3808V8.23687C0 7.00785 0.564643 5.84966 1.52594 5.10686L7.44586 0.5325ZM14.9199 7.19353L9 2.61917L3.08007 7.19353C2.75964 7.44113 2.57143 7.8272 2.57143 8.23687V15.3808H5.14286V10.7973C5.14286 9.35075 6.29413 8.17811 7.71429 8.17811H10.2857C11.7059 8.17811 12.8571 9.35075 12.8571 10.7973V15.3808L15.4286 15.3808V8.23687C15.4286 7.8272 15.2404 7.44113 14.9199 7.19353Z" fill="#B1B1B1"/>
</svg>
