<svg width="25" height="25" viewBox="0 0 25 25" fill="none" xmlns="http://www.w3.org/2000/svg">
<rect width="25" height="25" rx="4" fill="white"/>
<path d="M21.6667 0H3.33333C1.49236 0 0 1.49236 0 3.33333V21.6667C0 23.5076 1.49236 25 3.33333 25H21.6667C23.5076 25 25 23.5076 25 21.6667V3.33333C25 1.49236 23.5076 0 21.6667 0ZM12.5 19.0367C11.58 19.0373 10.6644 18.9091 9.78 18.6558C9.70059 18.6316 9.61803 18.6192 9.535 18.6192C9.375 18.6192 9.22972 18.6681 9.0925 18.7475L7.26806 19.8006C7.21722 19.8299 7.16806 19.8521 7.10764 19.8521C7.07115 19.8521 7.03501 19.8449 7.0013 19.831C6.96758 19.817 6.93694 19.7966 6.91113 19.7708C6.88532 19.745 6.86485 19.7143 6.85088 19.6806C6.83691 19.6469 6.82972 19.6108 6.82972 19.5743C6.82972 19.5057 6.85722 19.4371 6.87472 19.3714L7.25028 17.9706C7.26625 17.9119 7.27944 17.8553 7.27944 17.7938C7.27948 17.7052 7.25834 17.6178 7.21777 17.5391C7.17721 17.4603 7.1184 17.3924 7.04625 17.341C5.28931 16.0682 4.16667 14.1849 4.16667 12.0921C4.16667 8.25681 7.8975 5.14764 12.5 5.14764C15.3125 5.14764 17.7981 6.31014 19.3069 8.08847L10.8879 11.8357C10.7665 11.8804 10.6363 11.8961 10.5078 11.8814C10.3792 11.8667 10.2559 11.822 10.1478 11.751L8.35764 10.4765C8.31633 10.4457 8.26725 10.4269 8.21589 10.4224C8.16452 10.4178 8.11291 10.4277 8.06682 10.4508C8.02073 10.4739 7.98199 10.5094 7.95493 10.5533C7.92787 10.5972 7.91357 10.6477 7.91361 10.6993C7.91361 10.739 7.92375 10.7799 7.94014 10.8162L9.45722 14.145L9.49361 14.225C9.56346 14.3499 9.6789 14.443 9.8158 14.4848C9.9527 14.5267 10.1005 14.5139 10.2282 14.4493L10.289 14.414L19.884 8.87431C20.4892 9.83653 20.8333 10.9307 20.8333 12.0921C20.8333 15.9275 17.1024 19.0367 12.5 19.0367Z" fill="#24B340"/>
</svg>
