<svg width="28" height="28" viewBox="0 0 28 28" fill="none" xmlns="http://www.w3.org/2000/svg">
<rect x="1.8667" y="0.93335" width="25.2" height="25.2" rx="5" fill="white"/>
<path d="M27.0667 18.0859L18.9782 15.3623C19.5009 14.4856 19.9367 13.5598 20.2793 12.5983C20.6305 11.678 20.8891 10.7249 21.0512 9.75334L15.8076 9.71288V7.92435L22.1487 7.8839V6.6239H15.7665V3.73784H12.637V6.6239H6.70311V7.8839L12.6377 7.84344V9.75334H7.8822V10.7693H17.6777C17.5694 11.3922 17.4061 12.0043 17.1896 12.5983C16.8242 13.6142 16.4177 14.5088 16.4177 14.5088C16.4177 14.5088 11.8247 12.8828 9.38625 12.8828C6.94782 12.8828 4.06175 13.8589 3.77726 16.7039C3.4921 19.5084 5.11816 21.0529 7.47569 21.5814C9.64617 22.0455 11.9112 21.7136 13.8573 20.6464C15.2419 19.8464 16.4904 18.8309 17.5557 17.6383L26.9792 22.228C26.9811 22.2289 26.9826 22.2305 26.9836 22.2324C26.9845 22.2343 26.9848 22.2365 26.9845 22.2386C26.8089 23.3285 26.2497 24.3198 25.4079 25.0339C24.566 25.748 23.4967 26.1379 22.3928 26.1333H6.00414C4.90682 26.1333 3.85445 25.6974 3.07853 24.9215C2.30261 24.1456 1.8667 23.0932 1.8667 21.9959V5.07145C1.86661 4.52806 1.97357 3.98997 2.18145 3.48792C2.38934 2.98586 2.69409 2.52968 3.07829 2.14541C3.4625 1.76114 3.91864 1.45632 4.42066 1.24836C4.92268 1.04039 5.46075 0.93335 6.00414 0.93335H22.9286C23.472 0.933263 24.0101 1.04022 24.5121 1.2481C25.0142 1.45599 25.4704 1.76074 25.8546 2.14494C26.2389 2.52915 26.5437 2.98528 26.7517 3.4873C26.9597 3.98932 27.0667 4.52739 27.0667 5.07079V18.0859ZM15.2797 16.501C15.2797 16.501 12.3532 20.0369 8.93928 20.0369C5.52534 20.0369 4.79322 18.3704 4.79322 17.1509C4.79322 15.9313 5.52468 14.6309 8.41074 14.4279C11.3373 14.2655 15.2797 16.501 15.2797 16.501Z" fill="#02A9F1"/>
</svg>
