<svg width="16" height="16" viewBox="0 0 16 16" fill="none" xmlns="http://www.w3.org/2000/svg">
<path d="M8.00006 0C4.84275 0 2.66677 1.9584 2.66677 4.8C2.66677 5.188 2.66677 5.6 2.66677 6.4C2.66677 7.2 2.52278 7.632 2.02767 8C1.97167 8.0416 1.737 8.2232 1.66678 8.2752C0.542345 9.112 -0.00965007 9.896 0.000127629 11.2C0.00723868 12.0624 0.793899 12.8088 1.77789 12.8H5.50319C5.50319 12.8 5.33342 13.2888 5.33342 13.6C5.33342 14.9256 6.52719 16 8.00006 16C9.47294 16 10.6667 14.9256 10.6667 13.6C10.6667 13.2888 10.504 12.8 10.504 12.8H14.2222C15.2036 12.8024 15.9991 12.0672 16 11.2C16.0018 9.9056 15.4436 9.108 14.3333 8.2752C14.2605 8.22 14.0027 8.0432 13.9449 8C13.4605 7.6368 13.3334 7.2 13.3334 6.4C13.3334 5.4 13.3334 4.8 13.3334 4.8C13.3334 1.9584 11.1574 0 8.00006 0ZM8.00006 12.8C8.49072 12.8 8.88894 13.1584 8.88894 13.6C8.88894 14.0416 8.49072 14.4 8.00006 14.4C7.5094 14.4 7.11118 14.0416 7.11118 13.6C7.11118 13.1584 7.5094 12.8 8.00006 12.8Z" fill="#B1B1B1"/>
</svg>
